<svg viewBox="0 0 1283 330" fill="none" xmlns="http://www.w3.org/2000/svg">
<path fill-rule="evenodd" clip-rule="evenodd" d="M253.966 234.645C260.317 225.14 265.233 214.825 268.612 204.033H305.512C301.284 221.913 293.886 238.992 283.573 254.427C266.559 279.889 242.378 299.734 214.085 311.453C185.793 323.172 154.662 326.239 124.627 320.264C94.5922 314.29 67.0035 299.544 45.3497 277.89C23.6959 256.236 8.94942 228.647 2.97515 198.613C-2.99913 168.578 0.0670872 137.446 11.7861 109.154C23.505 80.8618 43.3504 56.6802 68.8126 39.6669C87.1018 27.4464 107.699 19.3186 129.201 15.7091C137.634 14.2934 146.206 13.5728 154.833 13.5728V49.1799C131.253 49.1799 108.202 56.1724 88.5949 69.2731C68.9882 82.3739 53.7067 100.994 44.6828 122.78C35.6588 144.566 33.2978 168.538 37.8981 191.666C42.4985 214.794 53.8537 236.038 70.5278 252.712C87.2018 269.386 108.446 280.741 131.574 285.341C154.701 289.942 178.674 287.581 200.459 278.557C222.245 269.533 240.866 254.251 253.966 234.645ZM341.14 168.405H305.513V204.033H341.14V168.405Z" fill="black"/>
<path fill-rule="evenodd" clip-rule="evenodd" d="M283.194 6.42031C283.194 6.42031 306.809 82.2598 249.558 145.182C233.54 162.787 216.899 166.555 200.395 170.293C185.381 173.692 170.48 177.067 156.264 190.808C142.691 203.928 137.465 220.578 137.465 220.578C137.465 220.578 124.652 175.931 164.52 152.909C175.265 146.704 184.569 144.872 193.703 143.074C206.431 140.567 218.828 138.126 234.335 124.008C250.576 109.221 257.617 86.8965 257.617 86.8965C257.617 86.8965 251.904 103.178 211.603 115.236C198.735 119.086 187.537 120.264 176.954 121.378C160.338 123.127 145.238 124.716 127.573 136.237C106.54 149.954 93.0892 176.351 97.866 206.818C101.466 229.777 121.43 245.327 121.43 245.327C121.43 245.327 101.788 238.662 85.9547 216.511C73.6633 199.315 58.6454 157.3 87.9061 118.122C105.154 95.0274 129.887 81.7015 191.255 81.7015C255.036 81.7015 283.194 6.41699 283.194 6.41699V6.42031ZM157.55 252.344C157.55 252.344 162.91 232.583 182.739 218.842C189.209 214.359 194.843 212.306 200.771 210.145C205.744 208.332 210.925 206.443 216.981 202.982C235.243 192.543 238.05 177.288 238.05 177.288C238.05 177.288 237.883 201.165 216.981 224.749C191.852 253.1 157.55 252.344 157.55 252.344Z" fill="url(#paint0_linear_103_40)"/>
<path fill-rule="evenodd" clip-rule="evenodd" d="M717.721 0V265.609H681.93V0H717.721ZM1050.76 1.88375V43.3263H1010.82V1.88375H1050.76ZM1012.7 329.569V294.016H1048.5V77.2339H1012.71V294.013H978.063V329.657L1012.7 329.569ZM1282.41 265.609H1246.62V237.353C1238.84 247.4 1229.42 255.312 1218.37 261.089C1207.32 266.615 1195.51 269.377 1182.95 269.377C1166.38 269.377 1151.31 265.231 1137.74 256.943C1124.18 248.405 1113.5 236.725 1105.72 221.905C1097.93 207.088 1094.04 190.259 1094.04 171.421C1094.04 152.584 1097.93 135.755 1105.72 120.938C1113.5 106.118 1124.18 94.5654 1137.74 86.2749C1151.31 77.7367 1166.38 73.4664 1182.95 73.4664C1196.01 73.4664 1208.19 76.4809 1219.5 82.5074C1230.8 88.5364 1240.47 96.9495 1248.51 107.752V77.2339H1282.41V265.609ZM1188.98 236.222C1200.03 236.222 1210.08 233.46 1219.12 227.934C1228.16 222.408 1235.2 214.748 1240.22 204.951C1245.24 194.905 1247.75 183.73 1247.75 171.421C1247.75 159.113 1245.24 148.063 1240.22 138.267C1235.2 128.22 1228.16 120.435 1219.12 114.909C1210.08 109.383 1200.03 106.621 1188.98 106.621C1177.93 106.621 1168.01 109.383 1159.22 114.909C1150.43 120.435 1143.52 128.22 1138.5 138.267C1133.47 148.063 1130.96 159.113 1130.96 171.421C1130.96 183.73 1133.47 194.905 1138.5 204.951C1143.52 214.748 1150.43 222.408 1159.22 227.934C1168.01 233.46 1177.93 236.222 1188.98 236.222ZM913.587 265.609H949.379V77.2339H915.471V107.752C907.434 96.9495 897.764 88.5364 886.461 82.5074C875.159 76.4809 862.977 73.4664 849.917 73.4664C833.339 73.4664 818.269 77.7367 804.707 86.2749C791.143 94.5654 780.469 106.118 772.683 120.938C764.897 135.755 761.003 152.584 761.003 171.421C761.003 190.259 764.897 207.088 772.683 221.905C780.469 236.725 791.143 248.405 804.707 256.943C818.269 265.231 833.339 269.377 849.917 269.377C862.475 269.377 874.28 266.615 885.331 261.089C896.383 255.312 905.801 247.4 913.587 237.353V265.609ZM886.085 227.934C877.043 233.46 866.996 236.222 855.945 236.222C844.893 236.222 834.972 233.46 826.181 227.934C817.39 222.408 810.483 214.748 805.46 204.951C800.437 194.905 797.925 183.73 797.925 171.421C797.925 159.113 800.437 148.063 805.46 138.267C810.483 128.22 817.39 120.435 826.181 114.909C834.972 109.383 844.893 106.621 855.945 106.621C866.996 106.621 877.043 109.383 886.085 114.909C895.127 120.435 902.159 128.22 907.183 138.267C912.206 148.063 914.718 159.113 914.718 171.421C914.718 183.73 912.206 194.905 907.183 204.951C902.159 214.748 895.127 222.408 886.085 227.934ZM594.812 86.2749C581.249 77.7367 566.179 73.4664 549.602 73.4664C536.542 73.4664 524.36 76.4809 513.057 82.5074C501.755 88.5364 492.085 96.9495 484.048 107.752V77.2339H450.14V329.657H485.931V237.353C493.718 247.4 503.136 255.312 514.188 261.089C525.239 266.615 537.044 269.377 549.602 269.377C566.179 269.377 581.249 265.231 594.812 256.943C608.375 248.405 619.05 236.725 626.836 221.905C634.622 207.088 638.515 190.259 638.515 171.421C638.515 152.584 634.622 135.755 626.836 120.938C619.05 106.118 608.375 94.5654 594.812 86.2749ZM573.338 227.934C564.547 233.46 554.626 236.222 543.574 236.222C532.523 236.222 522.476 233.46 513.434 227.934C504.392 222.408 497.359 214.748 492.336 204.951C487.313 194.905 484.801 183.73 484.801 171.421C484.801 159.113 487.313 148.063 492.336 138.267C497.359 128.22 504.392 120.435 513.434 114.909C522.476 109.383 532.523 106.621 543.574 106.621C554.626 106.621 564.547 109.383 573.338 114.909C582.128 120.435 589.035 128.22 594.059 138.267C599.082 148.063 601.594 159.113 601.594 171.421C601.594 183.73 599.082 194.905 594.059 204.951C589.035 214.748 582.128 222.408 573.338 227.934Z" fill="black"/>
<defs>
<linearGradient id="paint0_linear_103_40" x1="130.941" y1="247.217" x2="273.594" y2="53.6875" gradientUnits="userSpaceOnUse">
<stop stop-color="#FBB040"/>
<stop offset="1" stop-color="#FA0C61"/>
</linearGradient>
</defs>
</svg>
